<?xml version="1.0" standalone="no"?>
<!DOCTYPE svg PUBLIC "-//W3C//DTD SVG 20010904//EN"
 "http://www.w3.org/TR/2001/REC-SVG-20010904/DTD/svg10.dtd">
<svg version="1.0" xmlns="http://www.w3.org/2000/svg"
 width="1181.000000pt" height="1181.000000pt" viewBox="0 0 1181.000000 1181.000000"
 preserveAspectRatio="xMidYMid meet">

<g transform="translate(0.000000,1181.000000) scale(0.100000,-0.100000)"
fill="#000000" stroke="none">
<path d="M3419 7980 c-403 -43 -812 -259 -1073 -570 -245 -292 -374 -631 -381
-1004 -3 -125 -6 -151 -19 -158 -9 -5 -14 -13 -11 -19 4 -5 1 -9 -4 -9 -6 0
-11 7 -11 15 0 13 -28 15 -212 13 -193 -3 -213 -5 -216 -20 -3 -17 13 -18 227
-18 178 0 231 3 231 13 1 26 28 -41 34 -86 12 -77 54 -232 87 -315 82 -208
196 -379 366 -551 62 -63 113 -120 113 -127 0 -7 -9 -15 -20 -19 -35 -11 -67
-60 -74 -114 -4 -33 -13 -55 -26 -64 -11 -8 -17 -18 -12 -23 4 -4 0 -3 -9 4
-11 8 -130 12 -455 12 -241 0 -445 0 -451 0 -17 0 -17 -26 0 -33 8 -3 215 -5
460 -4 246 0 447 -3 448 -6 0 -4 -9 -33 -21 -64 l-21 -57 33 -28 c18 -16 61
-42 95 -59 52 -26 70 -30 104 -25 48 8 126 45 190 92 25 19 81 50 124 71 66
31 91 37 163 41 l85 5 -6 -31 c-7 -36 9 -58 73 -94 120 -69 320 -93 545 -68
146 17 237 46 289 92 39 34 45 43 39 69 l-5 29 61 0 c90 0 195 -38 291 -106
87 -61 183 -104 230 -104 39 0 113 38 169 87 l44 39 -25 56 c-24 51 -25 58
-11 77 13 19 12 21 -4 21 -28 0 -43 20 -43 57 0 64 -57 134 -120 148 -16 4
-30 12 -30 19 0 6 36 47 81 91 246 243 401 530 464 863 15 78 21 92 37 92 11
0 17 4 13 9 -3 5 -1 12 4 15 5 3 11 -1 15 -9 5 -13 305 -15 2576 -15 2444 0
2571 1 2568 18 -3 16 -137 17 -2597 22 l-2593 5 -3 165 c-5 255 -57 461 -176
688 -235 451 -670 769 -1173 857 -108 18 -346 26 -457 15z m82 -67 c-11 -5
-11 -7 0 -14 11 -7 11 -9 -2 -9 -9 0 -19 7 -23 15 -4 11 1 15 17 14 13 0 16
-3 8 -6z m285 -11 c-10 -2 -22 0 -28 6 -6 6 0 7 19 4 21 -5 23 -7 9 -10z
m-426 -2 c0 -5 -2 -10 -4 -10 -3 0 -8 5 -11 10 -3 6 -1 10 4 10 6 0 11 -4 11
-10z m258 3 c-10 -2 -26 -2 -35 0 -10 3 -2 5 17 5 19 0 27 -2 18 -5z m89 1
c-3 -3 -12 -4 -19 -1 -8 3 -5 6 6 6 11 1 17 -2 13 -5z m83 -21 c41 -5 51 -3
45 6 -4 8 3 6 17 -3 23 -15 26 -27 19 -69 0 -4 -10 -3 -20 3 -26 13 -32 3 -35
-63 l-3 -52 -34 1 c-33 0 -34 1 -30 40 8 80 7 89 -11 86 -23 -4 -31 13 -23 50
4 18 10 26 14 19 4 -6 31 -14 61 -18z m-469 10 c-9 -4 -10 -8 -3 -12 7 -4 8
-12 2 -21 -8 -13 -10 -12 -10 3 0 9 -6 17 -12 17 -9 0 -8 4 2 10 8 5 20 9 25
9 6 0 4 -3 -4 -6z m-61 -7 c0 -3 -4 -8 -10 -11 -5 -3 -10 -1 -10 4 0 6 5 11
10 11 6 0 10 -2 10 -4z m224 -86 l45 -86 -31 -2 c-17 -1 -39 4 -48 13 -19 17
-50 10 -50 -11 0 -8 -7 -15 -15 -15 -45 -4 -50 -3 -49 14 1 10 -3 16 -10 14
-14 -5 -9 -37 11 -59 14 -16 14 -18 -1 -24 -9 -3 -24 -3 -33 2 -10 4 -21 6
-25 6 -5 -1 -7 1 -6 6 0 4 -6 24 -15 44 -30 66 -16 173 21 166 13 -3 17 -14
17 -43 1 -72 5 -95 15 -95 6 0 8 11 4 26 -5 19 -4 25 5 20 6 -4 11 -15 11 -24
1 -9 7 -2 15 16 8 18 14 36 13 40 -4 21 17 65 35 71 38 14 46 8 91 -79z m96
29 c0 -57 1 -60 23 -57 22 3 24 7 26 86 1 29 4 32 31 32 27 0 35 -8 31 -32 0
-4 -3 -31 -5 -60 -4 -61 -29 -88 -82 -88 -48 0 -83 35 -84 85 -4 91 -2 95 30
95 l30 0 0 -61z m345 41 c3 -6 -1 -7 -9 -4 -18 7 -21 14 -7 14 6 0 13 -4 16
-10z m122 -16 c-2 -2 -21 -1 -42 3 -31 5 -35 8 -20 13 17 6 70 -8 62 -16z
m-557 12 c0 -3 -4 -8 -10 -11 -5 -3 -10 -1 -10 4 0 6 5 11 10 11 6 0 10 -2 10
-4z m524 -27 c49 -23 58 -116 15 -155 -23 -21 -112 -14 -140 12 -33 30 -21
109 20 141 20 16 73 16 105 2z m-674 -9 c0 -5 -5 -10 -11 -10 -5 0 -7 5 -4 10
3 6 8 10 11 10 2 0 4 -4 4 -10z m807 -22 c-20 -6 -21 -6 -2 -8 11 -1 24 -2 28
-1 5 1 6 -3 3 -8 -4 -5 -3 -29 0 -53 7 -43 7 -43 17 -14 7 20 6 30 -3 36 -9 5
-9 9 -1 14 6 4 11 2 11 -4 0 -6 4 -9 9 -6 5 4 21 2 35 -4 21 -8 25 -14 20 -33
-7 -28 14 -41 48 -28 11 4 31 6 44 3 28 -5 87 -68 79 -83 -4 -5 -4 -22 0 -37
l7 -27 26 32 27 31 30 -23 29 -24 -17 -36 c-18 -39 -10 -46 18 -15 23 25 36
25 68 0 18 -15 27 -17 30 -8 2 7 8 9 13 5 4 -4 -3 -18 -17 -30 -15 -12 -43
-43 -64 -70 -32 -40 -35 -49 -24 -63 8 -10 -1 -8 -27 7 -50 29 -50 29 -39 37
6 4 19 18 30 31 l20 24 -31 -22 c-26 -19 -35 -21 -53 -12 -17 10 -19 16 -11
31 16 29 12 35 -10 15 -20 -18 -21 -18 -43 3 -13 14 -17 22 -8 22 8 0 11 6 7
16 -3 8 -2 13 3 10 4 -3 16 3 26 14 12 14 14 23 7 37 -9 16 -11 15 -22 -9 -17
-36 -50 -49 -94 -37 -69 19 -90 82 -50 147 8 12 12 22 10 22 -2 0 -11 3 -20 6
-10 4 -16 1 -16 -7 0 -27 -35 -99 -48 -99 -32 0 -52 21 -52 55 0 18 -4 37 -10
40 -5 3 -10 0 -10 -7 0 -28 -26 -51 -48 -44 -12 4 -22 13 -22 20 0 14 42 116
60 149 8 13 6 17 -7 18 -16 0 -16 1 1 8 11 4 30 3 42 -3 l23 -11 -22 -7z
m-1094 15 c-7 -2 -19 -2 -25 0 -7 3 -2 5 12 5 14 0 19 -2 13 -5z m64 -25 c9
-21 6 -25 -31 -40 -23 -9 -33 -17 -23 -17 10 -1 27 4 38 10 15 7 24 7 34 -1
20 -17 8 -38 -31 -52 -19 -6 -34 -16 -34 -20 0 -11 2 -10 44 7 41 17 56 13 56
-15 0 -13 -17 -25 -62 -43 -35 -13 -66 -22 -70 -20 -3 2 -19 34 -34 73 -16 43
-31 67 -38 63 -6 -4 -3 3 8 15 10 11 31 24 47 27 17 4 26 11 23 17 -4 7 -2 8
4 4 7 -4 20 -2 29 3 25 15 29 14 40 -11z m87 7 c-4 -8 -8 -15 -10 -15 -2 0 -4
7 -4 15 0 8 4 15 10 15 5 0 7 -7 4 -15z m-27 -62 c-3 -10 -5 -2 -5 17 0 19 2
27 5 18 2 -10 2 -26 0 -35z m-237 6 c-7 -24 -6 -30 4 -26 18 7 15 -31 -4 -44
-11 -7 -8 -8 11 -4 23 6 29 2 42 -25 19 -38 15 -52 -26 -83 -44 -33 -62 -38
-95 -26 -37 13 -65 63 -60 109 3 30 9 38 48 57 25 13 51 23 58 23 6 0 12 8 12
18 0 16 8 32 16 32 1 0 -1 -14 -6 -31z m220 21 c0 -5 -4 -10 -10 -10 -5 0 -10
5 -10 10 0 6 5 10 10 10 6 0 10 -4 10 -10z m567 -32 c-3 -7 -5 -2 -5 12 0 14
2 19 5 13 2 -7 2 -19 0 -25z m573 11 c0 -6 -4 -7 -10 -4 -5 3 -10 11 -10 16 0
6 5 7 10 4 6 -3 10 -11 10 -16z m47 -9 c-1 -22 -18 -22 -25 0 -3 7 0 10 7 6 6
-4 11 -2 11 3 0 6 2 11 4 11 3 0 4 -9 3 -20z m-1477 -4 c0 -2 -7 -7 -16 -10
-8 -3 -12 -2 -9 4 6 10 25 14 25 6z m354 -54 c-17 -16 -18 -16 -11 1 4 10 7
26 7 35 1 15 2 15 11 -1 8 -13 6 -22 -7 -35z m226 8 c0 -11 -4 -20 -9 -20 -5
0 -7 9 -4 20 3 11 7 20 9 20 2 0 4 -9 4 -20z m255 11 c3 -5 1 -12 -5 -16 -5
-3 -10 1 -10 9 0 18 6 21 15 7z m769 -32 c17 -1 18 -2 3 -6 -9 -2 -15 -9 -12
-14 11 -17 -2 -9 -34 21 -38 37 -41 49 -5 21 15 -12 36 -22 48 -22z m-699 11
c-3 -5 -11 -10 -16 -10 -6 0 -7 5 -4 10 3 6 11 10 16 10 6 0 7 -4 4 -10z
m-991 -15 c-4 -8 -10 -15 -15 -15 -5 0 -9 7 -9 15 0 8 7 15 15 15 9 0 12 -6 9
-15z m-22 -32 c18 -16 18 -17 -4 -40 -12 -13 -29 -23 -37 -24 -10 0 -11 -3 -4
-5 6 -3 24 3 38 12 23 15 28 15 36 3 14 -23 11 -35 -16 -49 -14 -7 -25 -17
-25 -22 0 -13 13 -9 40 12 31 24 46 25 54 4 8 -22 2 -29 -57 -70 l-52 -35 -26
31 c-15 18 -29 28 -31 23 -3 -4 -3 -2 -1 5 2 8 -6 25 -17 39 -28 36 -26 45 23
83 23 19 44 38 45 42 5 12 13 10 34 -9z m458 13 c0 -2 -7 -7 -16 -10 -8 -3
-12 -2 -9 4 6 10 25 14 25 6z m40 -6 c0 -5 -2 -10 -4 -10 -3 0 -8 5 -11 10 -3
6 -1 10 4 10 6 0 11 -4 11 -10z m744 -5 c3 -9 0 -15 -9 -15 -8 0 -15 7 -15 15
0 8 4 15 9 15 5 0 11 -7 15 -15z m122 -20 c-6 -17 -36 -21 -36 -5 0 5 7 7 15
4 11 -4 15 1 16 17 0 13 3 18 6 11 3 -7 2 -19 -1 -27z m-76 5 c0 -5 -4 -10
-10 -10 -5 0 -10 5 -10 10 0 6 5 10 10 10 6 0 10 -4 10 -10z m485 0 c3 -5 1
-10 -4 -10 -6 0 -11 5 -11 10 0 6 2 10 4 10 3 0 8 -4 11 -10z m-1435 -20 c0
-5 -5 -10 -11 -10 -5 0 -7 5 -4 10 3 6 8 10 11 10 2 0 4 -4 4 -10z m780 -23
c285 -67 503 -196 688 -407 145 -166 233 -338 278 -550 22 -102 25 -350 5
-450 -46 -239 -168 -480 -329 -648 -157 -164 -312 -260 -553 -342 -70 -24
-137 -51 -149 -60 -22 -16 -22 -18 -5 -43 l17 -26 -39 -8 c-47 -10 -322 -11
-346 -1 -17 7 -17 9 0 34 16 25 16 27 -2 40 -24 18 -164 71 -209 80 -20 3 -34
9 -32 13 2 3 -10 7 -27 8 -41 3 -214 88 -312 154 -265 177 -465 471 -531 779
-26 120 -26 353 0 475 95 451 456 822 916 941 199 51 439 55 630 11z m210 -2
c0 -5 -5 -3 -10 5 -5 8 -10 20 -10 25 0 6 5 3 10 -5 5 -8 10 -19 10 -25z
m-1465 5 c3 -5 1 -10 -4 -10 -6 0 -11 5 -11 10 0 6 2 10 4 10 3 0 8 -4 11 -10z
m1970 0 c3 -6 -1 -7 -9 -4 -18 7 -21 14 -7 14 6 0 13 -4 16 -10z m-1580 -10
c3 -5 -1 -10 -10 -10 -9 0 -13 5 -10 10 3 6 8 10 10 10 2 0 7 -4 10 -10z
m-475 -49 c-12 -17 -25 -31 -30 -31 -5 0 2 12 15 26 14 15 25 32 25 37 0 6 3
8 6 4 3 -3 -4 -20 -16 -36z m420 9 c0 -5 -5 -10 -11 -10 -5 0 -7 5 -4 10 3 6
8 10 11 10 2 0 4 -4 4 -10z m-54 -18 c-10 -2 -22 0 -28 6 -6 6 0 7 19 4 21 -5
23 -7 9 -10z m-312 -68 l38 -46 30 29 29 28 18 -24 18 -24 -54 -44 c-30 -25
-59 -41 -63 -36 -55 60 -100 115 -100 123 0 10 28 40 39 40 4 0 24 -21 45 -46z
m266 42 c0 -3 -4 -8 -10 -11 -5 -3 -10 -1 -10 4 0 6 5 11 10 11 6 0 10 -2 10
-4z m1870 -16 c-8 -5 -19 -10 -25 -10 -5 0 -3 5 5 10 8 5 20 10 25 10 6 0 3
-5 -5 -10z m-1906 -25 c-4 -8 -13 -15 -20 -15 -12 0 -12 3 -2 15 17 19 29 19
22 0z m1851 5 c-27 -12 -43 -12 -25 0 8 5 22 9 30 9 10 0 8 -3 -5 -9z m41 -9
c-4 -5 7 -23 24 -39 42 -43 40 -76 -10 -123 -24 -23 -46 -36 -55 -33 -11 4
-15 -1 -16 -17 0 -16 -3 -19 -6 -9 -3 8 -21 32 -39 53 -37 40 -45 88 -21 121
10 13 84 46 125 55 2 1 1 -3 -2 -8z m-2268 -15 c-7 -8 -15 -12 -17 -11 -5 6
10 25 20 25 5 0 4 -6 -3 -14z m37 -6 c-3 -5 -12 -10 -18 -10 -7 0 -6 4 3 10
19 12 23 12 15 0z m1958 -30 c-3 -11 -7 -20 -8 -20 -1 0 -5 9 -8 20 -3 12 0
20 8 20 8 0 11 -8 8 -20z m-2003 -8 c-8 -3 -24 -9 -35 -14 -14 -7 -13 -4 5 11
13 10 29 17 34 13 6 -3 4 -8 -4 -10z m87 -1 c-3 -12 1 -22 9 -25 8 -3 14 -11
14 -17 0 -8 -4 -9 -13 0 -8 6 -17 8 -20 4 -4 -3 -7 1 -7 10 0 10 -7 17 -15 17
-8 0 -15 4 -15 9 0 5 9 7 20 4 11 -3 20 0 20 6 0 6 3 11 6 11 4 0 4 -9 1 -19z
m1953 -8 c0 -5 -4 -14 -9 -21 -7 -11 -9 -11 -14 1 -3 8 -3 18 0 21 9 8 23 7
23 -1z m-2028 -25 c8 -7 26 -24 41 -37 l27 -24 26 26 c31 31 37 32 54 12 10
-12 4 -23 -32 -65 -47 -54 -60 -60 -80 -32 -28 38 -81 73 -102 69 -18 -5 -19
-4 -4 6 15 10 15 12 0 25 -16 13 -16 13 0 8 9 -2 19 2 22 10 7 17 30 18 48 2z
m33 2 c3 -5 1 -10 -4 -10 -6 0 -11 5 -11 10 0 6 2 10 4 10 3 0 8 -4 11 -10z
m2345 -15 c0 -2 -6 -5 -13 -8 -8 -3 -14 1 -14 8 0 7 6 11 14 8 7 -3 13 -6 13
-8z m-2145 -23 c-3 -3 -11 0 -18 7 -9 10 -8 11 6 5 10 -3 15 -9 12 -12z m1855
8 c0 -5 -4 -10 -10 -10 -5 0 -10 5 -10 10 0 6 5 10 10 10 6 0 10 -4 10 -10z
m20 -24 c0 -3 -4 -8 -10 -11 -5 -3 -10 -1 -10 4 0 6 5 11 10 11 6 0 10 -2 10
-4z m278 -8 c22 -22 13 -46 -25 -69 -47 -28 -55 -40 -41 -57 9 -11 13 -11 19
0 5 7 9 10 9 5 0 -4 19 7 42 23 l42 31 19 -23 c13 -16 17 -18 13 -5 -3 9 -9
25 -12 35 -4 11 2 8 15 -8 11 -14 20 -29 20 -35 0 -9 -44 -41 -118 -86 -23
-14 -29 -15 -54 -2 -30 15 -67 67 -67 94 0 9 9 24 20 34 16 14 18 21 8 27 -8
6 -5 7 9 3 18 -5 22 -3 17 9 -4 11 -2 15 8 11 7 -3 22 1 33 9 25 19 28 19 43
4z m-2484 -29 c21 18 57 7 94 -28 17 -15 33 -27 35 -25 12 12 -4 -58 -18 -80
-32 -49 -73 -62 -121 -40 -54 26 -68 100 -28 146 10 11 12 18 5 23 -6 3 -11
11 -11 18 0 6 6 2 14 -8 12 -16 16 -17 30 -6z m2560 -1 c-6 -9 -44 -6 -44 3 0
4 11 6 24 5 13 0 22 -4 20 -8z m-2332 -14 c-12 -8 -22 -21 -22 -29 0 -8 -4
-17 -10 -20 -17 -11 -11 11 11 39 11 14 26 26 32 26 6 0 1 -7 -11 -16z m2048
-4 c0 -5 -2 -10 -4 -10 -3 0 -8 5 -11 10 -3 6 -1 10 4 10 6 0 11 -4 11 -10z
m240 -4 c0 -3 -15 -14 -32 -26 l-33 -22 30 26 c31 27 35 29 35 22z m-180 -42
c0 -8 -4 -12 -10 -9 -5 3 -10 10 -10 16 0 5 5 9 10 9 6 0 10 -7 10 -16z
m-2413 -41 c-3 -10 -5 -2 -5 17 0 19 2 27 5 18 2 -10 2 -26 0 -35z m-22 17
c-3 -5 -12 -10 -18 -10 -7 0 -6 4 3 10 19 12 23 12 15 0z m256 -21 c-13 -14
-21 -18 -21 -9 0 13 32 42 38 35 2 -2 -5 -14 -17 -26z m2164 21 c3 -5 1 -10
-4 -10 -6 0 -11 5 -11 10 0 6 2 10 4 10 3 0 8 -4 11 -10z m279 -45 c-11 -8
-14 -15 -8 -15 14 0 44 -60 44 -87 0 -10 -5 -25 -10 -33 -7 -12 -12 -12 -22
-2 -9 9 -14 6 -24 -18 -9 -19 -20 -30 -34 -30 -12 0 -20 -7 -20 -17 0 -14 -2
-15 -9 -4 -5 8 -14 10 -21 6 -9 -5 -11 -4 -6 3 4 7 -5 27 -19 46 -20 26 -24
40 -19 63 12 48 25 58 44 33 l17 -23 6 30 c4 21 16 33 46 46 23 10 41 24 42
30 0 8 2 7 6 -1 3 -7 -3 -20 -13 -27z m-244 15 c0 -5 -5 -10 -11 -10 -5 0 -7
5 -4 10 3 6 8 10 11 10 2 0 4 -4 4 -10z m-2440 -50 c38 0 40 -22 3 -56 l-28
-26 24 -19 c41 -33 56 -22 55 40 -1 30 1 49 5 44 3 -5 14 -12 24 -16 9 -4 22
-17 27 -29 8 -22 9 -21 11 7 1 19 3 23 6 12 3 -10 -5 -38 -16 -62 -12 -25 -21
-49 -21 -54 0 -17 -68 -24 -99 -11 -43 17 -61 42 -63 84 -1 26 6 44 22 61 13
14 18 25 12 25 -7 0 -12 10 -11 23 l0 22 9 -22 c7 -17 18 -23 40 -23z m2737
-32 c-3 -8 -6 -5 -6 6 -1 11 2 17 5 13 3 -3 4 -12 1 -19z m-2577 -3 c-7 -9
-15 -13 -19 -10 -3 3 1 10 9 15 21 14 24 12 10 -5z m2611 -105 c5 0 13 10 18
22 4 12 11 17 14 11 8 -12 -10 -32 -77 -91 -40 -34 -56 -42 -89 -42 -39 0 -39
0 -33 -31 5 -27 4 -30 -9 -19 -9 7 -13 21 -10 30 4 12 -1 19 -16 23 -38 10
-19 40 27 43 71 4 153 62 156 111 1 17 3 11 5 -14 2 -24 9 -43 14 -43z m-243
34 c2 -15 1 -16 -7 -5 -7 11 -10 9 -14 -10 -3 -19 -5 -17 -6 9 -1 36 21 41 27
6z m-2632 -26 c4 -7 4 -10 -1 -6 -4 4 -14 3 -22 -3 -13 -11 -19 2 -6 14 10 11
21 8 29 -5z m2814 8 c0 -3 -4 -8 -10 -11 -5 -3 -10 -1 -10 4 0 6 5 11 10 11 6
0 10 -2 10 -4z m-2830 -57 c0 -11 -4 -17 -10 -14 -5 3 -10 13 -10 21 0 8 5 14
10 14 6 0 10 -9 10 -21z m2905 -30 l-16 -34 7 35 c7 41 16 59 21 44 2 -6 -3
-26 -12 -45z m-2742 -6 c-7 -2 -19 -2 -25 0 -7 3 -2 5 12 5 14 0 19 -2 13 -5z
m-183 -28 c0 -2 -10 -9 -22 -15 -22 -11 -22 -10 -4 4 21 17 26 19 26 11z m52
-31 c-3 -14 -1 -15 10 -7 48 38 106 1 94 -61 -8 -44 -34 -75 -66 -78 -21 -3
-25 1 -23 20 3 19 0 21 -16 13 -10 -6 -32 -9 -49 -8 -24 2 -29 7 -29 26 0 13
-7 27 -14 32 -12 7 -11 9 1 9 9 0 16 10 17 21 1 12 10 30 19 40 21 24 60 19
56 -7z m123 -4 c3 -5 1 -10 -4 -10 -6 0 -11 5 -11 10 0 6 2 10 4 10 3 0 8 -4
11 -10z m2797 -80 c18 -69 19 -83 7 -91 -22 -14 -29 -11 -40 15 -11 24 -12 24
-58 10 -61 -18 -66 -18 -79 10 -12 26 0 46 29 46 38 0 79 22 79 43 0 17 30 59
38 52 1 -1 12 -39 24 -85z m-85 24 c-3 -3 -12 -4 -19 -1 -8 3 -5 6 6 6 11 1
17 -2 13 -5z m-60 -10 c-3 -3 -12 -4 -19 -1 -8 3 -5 6 6 6 11 1 17 -2 13 -5z
m-2875 -37 c-5 -18 -7 -19 -10 -4 -2 9 -8 17 -13 17 -6 0 -8 4 -4 10 11 18 33
-1 27 -23z m2815 -34 c-3 -10 -5 -4 -5 12 0 17 2 24 5 18 2 -7 2 -21 0 -30z
m-2667 -28 c5 3 12 0 16 -6 5 -8 3 -9 -6 -4 -9 6 -10 2 -4 -16 10 -33 7 -98
-6 -114 -18 -21 -68 -38 -94 -31 -35 9 -71 46 -74 78 -5 39 24 87 61 103 27
11 37 11 65 -1 19 -8 38 -12 42 -9z m50 21 c0 -3 -4 -8 -10 -11 -5 -3 -10 -1
-10 4 0 6 5 11 10 11 6 0 10 -2 10 -4z m2660 -36 c0 -5 -7 -10 -15 -10 -8 0
-15 5 -15 10 0 6 7 10 15 10 8 0 15 -4 15 -10z m110 0 c8 -5 11 -10 5 -10 -5
0 -17 5 -25 10 -8 5 -10 10 -5 10 6 0 17 -5 25 -10z m-93 -32 c-3 -8 -6 -5 -6
6 -1 11 2 17 5 13 3 -3 4 -12 1 -19z m174 0 c1 -7 1 -17 0 -21 -1 -5 3 -24 8
-44 18 -64 -25 -112 -76 -84 -15 8 -26 5 -49 -14 -28 -23 -28 -24 -6 -25 12 0
22 6 23 13 0 10 2 10 6 0 3 -8 25 -13 59 -13 l55 0 -3 -32 -3 -32 -85 1 c-82
0 -84 1 -91 27 -4 14 -3 26 2 26 5 0 9 5 9 11 0 5 -3 8 -8 5 -4 -2 -6 13 -4
34 3 27 10 41 28 51 25 13 33 31 12 28 -39 -5 -49 1 -46 28 3 26 7 28 78 39
41 6 78 12 83 13 4 0 8 -5 8 -11z m43 -77 c-6 -7 -11 2 -17 34 l-6 30 13 -30
c8 -16 12 -32 10 -34z m-3124 29 c0 -5 -2 -10 -4 -10 -3 0 -8 5 -11 10 -3 6
-1 10 4 10 6 0 11 -4 11 -10z m2918 -37 c6 -19 -25 -16 -32 3 -4 11 -1 14 11
12 9 -2 18 -9 21 -15z m-2893 -23 c3 -5 -3 -10 -15 -10 -12 0 -18 5 -15 10 3
6 10 10 15 10 5 0 12 -4 15 -10z m159 -60 c-9 -50 -9 -50 -85 -44 -49 5 -73 3
-78 -5 -5 -7 -12 3 -18 24 -10 32 -9 35 10 40 28 6 81 10 133 10 39 0 41 -2
38 -25z m2919 15 c-3 -9 -8 -14 -10 -11 -3 3 -2 9 2 15 9 16 15 13 8 -4z
m-3126 -37 c-3 -7 -5 -2 -5 12 0 14 2 19 5 13 2 -7 2 -19 0 -25z m23 -38 c0
-5 -4 -10 -10 -10 -5 0 -10 5 -10 10 0 6 5 10 10 10 6 0 10 -4 10 -10z m181
-31 c5 -19 -1 -31 -30 -57 l-36 -33 42 5 c39 4 41 3 45 -24 2 -16 2 -29 -1
-28 -19 2 -20 -5 -6 -33 15 -28 15 -32 1 -42 -10 -8 -14 -20 -9 -35 4 -18 8
-20 14 -10 7 10 9 9 9 -4 0 -10 5 -18 10 -18 6 0 10 5 10 12 0 6 3 9 6 5 3 -3
2 -12 -2 -19 -5 -7 -8 -22 -9 -33 0 -23 -19 -23 -118 -3 -64 12 -84 35 -64 73
6 11 10 24 9 28 -1 5 2 6 7 3 5 -3 33 10 63 29 l53 35 -65 -5 c-36 -4 -71 -8
-77 -10 -7 -3 -16 8 -19 23 -4 15 -11 33 -17 40 -7 9 -6 11 5 7 8 -3 27 5 43
19 l28 24 -34 4 c-29 2 -34 7 -37 31 -3 26 -2 27 50 28 29 1 64 5 78 9 35 11
43 7 51 -21z m2739 -22 c0 -18 -2 -19 -10 -7 -6 9 -10 10 -10 3 0 -21 12 -43
21 -37 5 3 22 7 37 10 37 6 124 36 140 48 11 8 12 2 6 -30 -9 -53 -8 -53 -66
-60 l-52 -7 53 -23 c36 -16 51 -28 48 -38 -3 -7 0 -19 6 -25 8 -8 8 -11 -1
-11 -6 0 -9 -7 -6 -15 4 -8 1 -15 -5 -15 -6 0 -11 6 -11 13 -1 6 -38 30 -84
52 -75 35 -83 42 -76 60 5 13 3 28 -6 40 -22 30 -16 84 7 69 5 -3 9 -15 9 -27z
m207 1 c-3 -7 -5 -2 -5 12 0 14 2 19 5 13 2 -7 2 -19 0 -25z m-3154 7 c-3 -9
-8 -14 -10 -11 -3 3 -2 9 2 15 9 16 15 13 8 -4z m3014 -7 c-3 -8 -6 -5 -6 6
-1 11 2 17 5 13 3 -3 4 -12 1 -19z m50 6 c-3 -3 -12 -4 -19 -1 -8 3 -5 6 6 6
11 1 17 -2 13 -5z m-3044 -24 c3 -11 1 -20 -4 -20 -5 0 -9 9 -9 20 0 11 2 20
4 20 2 0 6 -9 9 -20z m2957 16 c0 -3 -4 -8 -10 -11 -5 -3 -10 -1 -10 4 0 6 5
11 10 11 6 0 10 -2 10 -4z m170 -76 c0 -5 -5 -10 -11 -10 -5 0 -7 5 -4 10 3 6
8 10 11 10 2 0 4 -4 4 -10z m-3123 -62 c-3 -8 -6 -5 -6 6 -1 11 2 17 5 13 3
-3 4 -12 1 -19z m111 -15 c-10 -2 -28 -2 -40 0 -13 2 -5 4 17 4 22 1 32 -1 23
-4z m2852 -3 c-7 -4 9 -20 40 -39 28 -17 55 -29 60 -26 5 3 12 0 16 -6 4 -7 3
-9 -3 -6 -6 4 -10 -7 -11 -25 -1 -41 -8 -46 -67 -53 -87 -9 -116 -16 -110 -26
4 -5 10 -7 15 -4 5 3 11 1 14 -4 4 -5 29 -17 56 -26 59 -20 64 -26 49 -58 -8
-18 -22 -27 -52 -31 l-41 -7 29 -15 c29 -15 50 -10 25 6 -11 7 -7 10 15 10 18
0 25 -3 18 -8 -7 -4 -19 -24 -28 -45 l-15 -37 -49 20 c-27 10 -52 16 -55 13
-3 -4 -6 -1 -6 6 0 8 -6 11 -16 7 -8 -3 -12 -2 -9 4 3 6 0 10 -7 10 -28 0 -51
26 -44 48 4 12 12 22 17 22 6 0 6 -7 -1 -19 -12 -24 -13 -31 -1 -31 5 0 11 9
14 19 3 13 17 22 41 26 42 8 46 22 11 35 -25 9 -25 11 -10 39 8 17 15 42 15
56 0 18 6 29 19 32 18 5 37 53 21 53 -12 0 -20 43 -10 55 5 7 23 12 40 12 17
0 26 -3 20 -7z m-2927 -53 c-3 -5 -9 -21 -14 -35 -7 -22 -8 -21 -4 10 3 21 1
48 -5 60 -10 21 -10 21 9 -2 10 -13 17 -28 14 -33z m2857 -8 c0 -6 -4 -8 -9
-5 -5 4 -11 0 -14 -6 -2 -7 -8 -10 -12 -6 -9 8 17 38 28 31 4 -2 7 -9 7 -14z
m-2650 1 c0 -5 -2 -10 -4 -10 -3 0 -8 5 -11 10 -3 6 -1 10 4 10 6 0 11 -4 11
-10z m-205 -70 c3 -5 1 -10 -4 -10 -6 0 -11 5 -11 10 0 6 2 10 4 10 3 0 8 -4
11 -10z m3065 -14 c0 -3 -4 -8 -10 -11 -5 -3 -10 -1 -10 4 0 6 5 11 10 11 6 0
10 -2 10 -4z m-3043 -12 c-3 -3 -12 -4 -19 -1 -8 3 -5 6 6 6 11 1 17 -2 13 -5z
m183 -14 c0 -5 -5 -10 -11 -10 -5 0 -7 5 -4 10 3 6 8 10 11 10 2 0 4 -4 4 -10z
m16 -45 c3 -14 10 -23 14 -20 4 3 11 -2 14 -11 10 -27 7 -39 -7 -21 -11 16
-16 15 -52 -19 -22 -19 -51 -45 -64 -57 -33 -30 -62 -31 -55 -3 3 11 6 31 7
43 0 12 4 20 8 17 4 -2 13 2 21 9 7 7 22 19 33 26 18 11 16 12 -14 7 -18 -3
-42 -6 -53 -6 -12 0 -18 -6 -16 -16 2 -10 -2 -19 -8 -21 -6 -2 -11 8 -11 24 0
15 -4 38 -8 51 -7 22 -6 22 89 22 94 0 96 -1 102 -25z m2574 -34 c0 -23 -1
-24 -14 -6 -7 10 -11 27 -8 38 6 25 22 2 22 -32z m200 39 c0 -5 -2 -10 -4 -10
-3 0 -8 5 -11 10 -3 6 -1 10 4 10 6 0 11 -4 11 -10z m30 -20 c0 -5 -2 -10 -4
-10 -3 0 -8 5 -11 10 -3 6 -1 10 4 10 6 0 11 -4 11 -10z m-23 -72 c-3 -8 -6
-5 -6 6 -1 11 2 17 5 13 3 -3 4 -12 1 -19z m-2727 2 c12 -8 11 -10 -7 -10 -13
0 -23 5 -23 10 0 13 11 13 30 0z m-75 -20 c-3 -5 -14 -10 -23 -10 -15 0 -15 2
-2 10 20 13 33 13 25 0z m74 -22 c11 -29 7 -33 -76 -74 -62 -30 -69 -32 -80
-17 -25 33 -15 49 55 80 82 38 90 39 101 11z m2471 8 c0 -3 -4 -8 -10 -11 -5
-3 -10 -1 -10 4 0 6 5 11 10 11 6 0 10 -2 10 -4z m250 -16 c0 -5 -2 -10 -4
-10 -3 0 -8 5 -11 10 -3 6 -1 10 4 10 6 0 11 -4 11 -10z m-147 -34 c8 3 18 1
22 -5 4 -7 -1 -9 -12 -6 -10 3 -8 0 5 -6 12 -7 22 -16 22 -21 0 -4 7 -8 15 -8
26 0 -35 -107 -65 -115 -14 -4 -28 -12 -32 -18 -6 -9 -8 -9 -8 1 0 6 -6 12
-14 12 -8 0 -26 10 -41 23 -20 18 -26 33 -30 82 -2 33 -1 52 3 42 6 -14 10
-12 26 17 l19 35 38 -19 c21 -11 44 -17 52 -14z m87 -67 c-7 -11 -14 -18 -17
-15 -3 3 0 12 7 21 18 21 23 19 10 -6z m-2659 -26 c-12 -20 -14 -14 -5 12 4 9
9 14 11 11 3 -2 0 -13 -6 -23z m79 -20 c0 -8 -7 -27 -15 -43 -9 -17 -11 -30
-6 -30 13 0 32 26 24 34 -4 4 1 4 10 0 27 -10 98 -107 87 -118 -13 -13 18 -46
36 -39 13 5 61 -33 53 -41 -5 -4 -79 -38 -131 -59 -35 -15 -37 -14 -59 9 l-24
25 30 57 c17 31 30 60 30 64 0 3 3 10 8 14 17 18 5 23 -19 8 -19 -13 -22 -19
-12 -26 9 -7 8 -8 -6 -4 -12 4 -31 -3 -52 -19 -24 -19 -39 -23 -50 -17 -9 5
-15 12 -15 15 3 20 -2 28 -29 56 -26 26 -29 34 -20 51 13 25 56 54 69 46 5 -3
19 10 30 30 21 35 22 36 41 19 11 -10 20 -24 20 -32z m2311 -20 c12 7 30 -1
78 -36 39 -28 69 -43 80 -40 10 4 5 -6 -13 -25 -17 -18 -25 -35 -21 -43 5 -7
4 -10 -2 -6 -5 3 -20 -7 -32 -23 -12 -17 -30 -30 -41 -30 -24 0 -63 37 -55 50
4 6 -4 9 -17 7 -19 -3 -33 1 -67 20 -2 2 2 10 9 19 11 13 11 17 1 24 -9 5 -10
10 -2 14 6 4 11 2 11 -4 0 -7 6 -8 19 0 24 12 34 13 27 1 -3 -5 7 -8 22 -8
l27 0 -22 14 c-13 9 -23 25 -23 37 0 20 -1 20 -20 -4 -11 -14 -20 -21 -20 -16
0 5 8 18 17 28 13 14 14 21 5 30 -7 7 -12 17 -12 23 0 5 8 -2 18 -16 13 -20
21 -24 33 -16z m-2511 23 c0 -3 -4 -8 -10 -11 -5 -3 -10 -1 -10 4 0 6 5 11 10
11 6 0 10 -2 10 -4z m290 -86 c9 -16 8 -18 -5 -14 -8 4 -15 12 -15 20 0 20 7
17 20 -6z m2114 -45 c3 -8 1 -15 -4 -15 -6 0 -10 7 -10 15 0 8 2 15 4 15 2 0
6 -7 10 -15z m-2054 -31 c0 -14 -3 -14 -15 -4 -8 7 -15 14 -15 16 0 2 7 4 15
4 8 0 15 -7 15 -16z m2016 -12 c-17 -16 -18 -16 -5 5 7 12 15 20 18 17 3 -2
-3 -12 -13 -22z m-2166 -2 c0 -5 -2 -10 -4 -10 -3 0 -8 5 -11 10 -3 6 -1 10 4
10 6 0 11 -4 11 -10z m2230 -2 c0 -4 6 -8 13 -8 7 0 31 -19 54 -42 36 -38 40
-45 29 -60 -19 -26 -36 -22 -80 17 -36 33 -56 37 -56 12 0 -6 16 -28 36 -48
38 -39 40 -63 8 -76 -12 -4 -32 9 -66 46 -57 59 -59 83 -7 136 26 28 69 42 69
23z m-2290 -33 c0 -2 -9 -9 -20 -15 -16 -9 -18 -8 -14 5 5 13 34 22 34 10z
m27 -47 c-3 -8 -6 -5 -6 6 -1 11 2 17 5 13 3 -3 4 -12 1 -19z m257 -11 c8 -13
5 -21 -12 -37 -12 -11 -22 -24 -22 -27 0 -4 10 3 23 15 29 27 53 28 67 2 9
-16 7 -24 -5 -36 -26 -26 -17 -29 12 -3 15 13 32 29 36 34 5 6 5 0 2 -12 -4
-14 -2 -23 4 -23 6 0 11 -5 11 -10 0 -12 -1 -13 -64 -84 l-43 -49 -31 23 c-30
22 -31 25 -17 46 21 33 19 47 -4 32 -11 -7 -18 -15 -16 -18 2 -3 -7 -5 -20 -5
-13 1 -33 12 -43 25 l-20 24 56 64 c56 64 67 69 86 39z m2133 -9 c-3 -8 -6 -5
-6 6 -1 11 2 17 5 13 3 -3 4 -12 1 -19z m-2044 -18 c-3 -11 -9 -20 -14 -20
-10 0 -12 24 -2 33 13 13 21 7 16 -13z m1953 -18 c-6 -5 -36 23 -36 34 0 4 9
-1 20 -11 11 -10 18 -20 16 -23z m-126 -41 l53 -63 -29 -24 c-36 -29 -35 -29
-69 -2 -27 21 -28 21 -16 0 19 -36 13 -60 -21 -78 -28 -15 -32 -15 -40 0 -5 9
-18 16 -28 16 -11 0 -20 4 -20 10 0 5 8 6 18 3 10 -4 1 12 -21 36 -40 44 -42
57 -15 75 13 8 21 4 38 -15 l21 -24 -16 33 c-15 31 -15 32 10 44 21 9 28 8 45
-7 11 -10 20 -14 20 -8 0 6 -11 18 -24 28 l-25 19 22 12 c12 7 27 12 33 11 6
-1 35 -31 64 -66z m-1783 14 c0 -8 -4 -12 -9 -9 -5 3 -6 10 -3 15 9 13 12 11
12 -6z m-287 -5 c0 -5 -2 -10 -4 -10 -3 0 -8 5 -11 10 -3 6 -1 10 4 10 6 0 11
-4 11 -10z m1865 -28 c-3 -3 -11 0 -18 7 -9 10 -8 11 6 5 10 -3 15 -9 12 -12z
m250 -2 c10 -11 16 -20 13 -20 -3 0 -13 9 -23 20 -10 11 -16 20 -13 20 3 0 13
-9 23 -20z m-265 -14 c0 -3 -4 -8 -10 -11 -5 -3 -10 -1 -10 4 0 6 5 11 10 11
6 0 10 -2 10 -4z m-1440 -22 c0 -2 -11 -3 -24 -2 -14 1 -23 5 -20 9 4 7 44 0
44 -7z m1395 7 c17 -7 16 -9 -13 -16 -18 -4 -36 -4 -39 -1 -4 3 5 6 18 6 19 0
21 2 9 10 -18 11 -3 12 25 1z m-1538 -43 c-3 -7 -5 -2 -5 12 0 14 2 19 5 13 2
-7 2 -19 0 -25z m1615 -31 c-2 -5 -10 0 -18 10 -20 26 -17 36 4 16 11 -10 17
-22 14 -26z m-1642 30 c0 -2 -9 -12 -20 -22 -24 -21 -27 -14 -4 9 15 15 24 20
24 13z m13 -32 c-3 -9 -8 -14 -10 -11 -3 3 -2 9 2 15 9 16 15 13 8 -4z m93
-22 c-8 -9 -66 -11 -61 -3 2 4 18 7 36 8 17 0 28 -2 25 -5z m436 -40 c-6 -2
-10 -9 -6 -14 3 -5 -16 -8 -43 -7 -40 1 -42 2 -13 5 19 3 39 9 45 14 5 5 14 9
20 8 5 0 4 -3 -3 -6z m55 -9 c-3 -3 -12 -4 -19 -1 -8 3 -5 6 6 6 11 1 17 -2
13 -5z m595 -16 c-7 -7 -12 -8 -12 -2 0 6 3 14 7 17 3 4 9 5 12 2 2 -3 -1 -11
-7 -17z m245 16 c-3 -3 -12 -4 -19 -1 -8 3 -5 6 6 6 11 1 17 -2 13 -5z m-1152
-19 c-39 -12 -60 -11 -51 3 2 4 24 8 48 8 l43 1 -40 -12z m1015 -6 c-12 -22
-22 -19 -26 6 -1 9 6 15 17 15 17 0 18 -3 9 -21z m277 8 c0 -7 -9 -13 -19 -13
-23 0 -24 13 0 19 9 3 17 5 18 6 0 0 1 -5 1 -12z m-1199 -6 c11 -7 10 -9 -3
-14 -11 -5 -14 -3 -9 5 5 8 2 9 -9 5 -9 -3 -19 -2 -22 3 -8 12 25 13 43 1z
m857 -1 c-3 -5 -11 -10 -16 -10 -6 0 -7 5 -4 10 3 6 11 10 16 10 6 0 7 -4 4
-10z m200 -10 c40 0 56 -17 49 -53 -2 -15 0 -27 6 -27 5 0 10 10 10 23 0 39
14 50 53 43 49 -9 61 -26 42 -63 -13 -25 -20 -29 -43 -25 -34 6 -26 -3 10 -12
25 -6 30 -2 48 34 11 22 23 40 27 40 3 0 21 -9 39 -21 37 -22 47 -65 19 -75
-8 -4 -15 -15 -15 -25 0 -17 3 -18 20 -9 11 6 18 15 15 20 -3 6 1 7 10 4 11
-5 14 -2 9 10 -5 13 -2 15 12 9 17 -6 17 -5 5 11 -13 16 -12 16 17 -1 34 -19
38 -36 23 -91 -13 -43 -6 -40 19 8 11 22 22 40 25 40 13 0 75 -35 75 -42 0 -5
8 -5 18 0 9 4 40 8 67 8 49 -1 50 -2 51 -31 1 -16 4 -38 9 -47 4 -10 4 -18 1
-18 -3 0 -12 15 -20 33 l-15 32 6 -46 c4 -31 1 -49 -7 -54 -16 -10 -34 10 -36
43 -4 55 -5 58 -11 43 -5 -11 -7 -11 -15 0 -6 10 -8 3 -6 -21 2 -19 7 -38 12
-41 12 -10 -30 -30 -47 -23 -11 4 -13 13 -6 42 12 53 11 59 -7 34 -8 -12 -13
-26 -9 -32 3 -5 -4 -14 -16 -20 -16 -9 -28 -9 -52 1 -43 17 -76 41 -77 55 0
18 -32 41 -37 27 -5 -14 -53 4 -53 20 0 5 -6 5 -13 -1 -11 -9 -13 -4 -11 23 3
39 -3 44 -21 18 -8 -11 -17 -13 -26 -7 -8 5 -16 9 -19 9 -77 12 -88 17 -82 38
5 21 5 21 -12 4 -15 -15 -30 -17 -85 -14 -38 3 -84 -1 -109 -8 -42 -13 -43
-13 -53 13 -6 15 -11 45 -12 67 -3 55 22 53 40 -2 13 -39 17 -42 35 -32 16 8
23 8 29 -2 5 -9 7 3 6 29 -3 50 5 67 27 59 10 -4 17 -20 17 -44 2 -33 2 -34 6
-8 6 50 15 81 20 68 3 -7 19 -13 38 -13z m2 14 c-3 -3 -12 -4 -19 -1 -8 3 -5
6 6 6 11 1 17 -2 13 -5z m-1458 -13 c23 -15 -3 -20 -29 -5 -22 12 -23 13 -5
13 11 1 26 -3 34 -8z m379 -61 c33 -64 31 -77 -11 -55 -25 13 -29 12 -51 -10
-38 -37 -48 -6 -22 67 12 33 11 38 -3 41 -10 3 -8 5 7 6 12 0 22 5 22 11 0 24
29 -6 58 -60z m128 49 c14 -16 15 -23 7 -26 -9 -3 -10 -10 -3 -24 22 -40 -26
-78 -71 -55 -27 13 -47 59 -22 49 13 -5 13 -3 4 15 -14 27 -14 28 5 46 22 22
58 20 80 -5z m1337 12 c-4 -3 -10 -10 -14 -14 -3 -4 -11 -2 -18 6 -9 12 -7 15
14 15 14 0 22 -3 18 -7z m-1568 -48 c3 -15 1 -30 -6 -37 -9 -8 -10 -6 -6 12 3
12 1 22 -4 22 -5 0 -9 -11 -9 -25 0 -14 5 -25 11 -25 6 0 9 -10 7 -22 -5 -35
-29 -27 -51 15 -12 23 -23 34 -27 27 -5 -7 -11 -6 -21 6 -11 14 -11 18 6 31
11 7 30 16 43 20 12 3 22 10 22 15 0 19 28 -12 35 -39z m-330 27 c18 -8 17 -9
-7 -9 -16 -1 -28 4 -28 9 0 12 8 12 35 0z m635 0 c0 -5 8 -10 17 -10 12 0 14
-3 7 -10 -14 -14 -44 -2 -44 16 0 8 5 14 10 14 6 0 10 -4 10 -10z m-430 -15
c11 -13 10 -14 -4 -9 -9 3 -16 10 -16 15 0 13 6 11 20 -6z m1860 5 c0 -5 -5
-10 -11 -10 -5 0 -7 5 -4 10 3 6 8 10 11 10 2 0 4 -4 4 -10z m-2170 -4 c0 -2
-8 -10 -17 -17 -16 -13 -17 -12 -4 4 13 16 21 21 21 13z m307 -33 c4 -10 18
-35 31 -55 20 -31 22 -41 12 -53 -10 -12 -16 -13 -26 -4 -8 6 -14 18 -14 25 0
8 -4 14 -10 14 -5 0 -10 6 -10 14 0 7 -7 19 -15 26 -11 9 -12 17 -4 31 12 24
28 24 36 2z m410 -15 c-3 -8 -6 -5 -6 6 -1 11 2 17 5 13 3 -3 4 -12 1 -19z
m-490 -4 c-3 -3 -12 -4 -19 -1 -8 3 -5 6 6 6 11 1 17 -2 13 -5z m31 -26 c7 -7
12 -20 12 -29 0 -10 9 -21 21 -24 12 -4 19 -13 17 -23 -4 -18 -29 -20 -61 -7
-17 7 -18 6 -6 -13 15 -24 0 -50 -21 -37 -19 12 -64 89 -67 115 -1 17 0 21 6
11 7 -11 13 -11 32 3 28 19 50 21 67 4z m602 -7 c0 -6 -5 -13 -11 -17 -8 -5
-8 -8 0 -14 9 -5 7 -10 -4 -20 -13 -11 -15 -10 -9 4 3 9 1 16 -5 16 -8 0 -7 6
1 20 13 21 28 27 28 11z m420 -17 c0 -14 -3 -14 -15 -4 -8 7 -15 14 -15 16 0
2 7 4 15 4 8 0 15 -7 15 -16z m44 1 c3 -8 1 -15 -4 -15 -6 0 -10 7 -10 15 0 8
2 15 4 15 2 0 6 -7 10 -15z m-244 -2 c0 -10 -19 -40 -21 -33 0 3 -2 13 -4 23
-2 9 3 17 11 17 8 0 14 -3 14 -7z m-414 -17 c18 -19 18 -27 0 -20 -14 5 -31
34 -20 34 3 0 12 -6 20 -14z m239 4 c-3 -5 -10 -10 -16 -10 -5 0 -9 5 -9 10 0
6 7 10 16 10 8 0 12 -4 9 -10z m279 0 c-7 -7 -19 -7 -35 -1 -23 9 -22 10 11
10 23 1 31 -2 24 -9z m331 0 c-3 -5 -11 -10 -16 -10 -6 0 -7 5 -4 10 3 6 11
10 16 10 6 0 7 -4 4 -10z m550 -10 c3 -6 -1 -7 -9 -4 -18 7 -21 14 -7 14 6 0
13 -4 16 -10z m-2092 -7 c-7 -2 -21 -2 -30 0 -10 3 -4 5 12 5 17 0 24 -2 18
-5z m175 -16 c2 -11 -3 -17 -15 -18 -18 -1 -16 -2 26 -15 11 -4 11 -7 0 -21
-13 -15 -12 -15 7 -5 19 10 21 9 16 -15 -3 -14 -13 -28 -23 -30 -10 -3 -17 -9
-14 -13 2 -4 -7 -6 -20 -4 -14 1 -25 -2 -25 -7 0 -6 -6 -4 -14 3 -8 7 -12 16
-10 19 6 10 -16 79 -25 79 -5 0 -14 -20 -21 -45 -14 -50 -46 -77 -61 -54 -17
26 -39 113 -31 121 4 4 17 5 29 2 14 -4 19 -11 16 -25 -3 -10 -1 -19 5 -19 6
0 12 10 14 23 2 18 10 22 45 24 23 0 50 6 60 12 23 13 37 9 41 -12z m852 19
c0 -3 -4 -8 -10 -11 -5 -3 -10 -1 -10 4 0 6 5 11 10 11 6 0 10 -2 10 -4z m260
-17 c0 -5 -7 -9 -15 -9 -8 0 -15 7 -15 15 0 9 6 12 15 9 8 -4 15 -10 15 -15z
m-673 5 c-3 -3 -12 -4 -19 -1 -8 3 -5 6 6 6 11 1 17 -2 13 -5z m317 -26 c11
-25 15 -28 15 -12 1 11 6 25 12 31 14 14 39 6 39 -11 0 -22 -42 -101 -59 -111
-13 -8 -11 -10 14 -16 28 -6 27 -7 -10 -7 -22 0 -49 3 -60 8 -18 8 -17 9 7 9
26 1 26 2 17 39 -6 20 -15 47 -21 59 -6 11 -7 26 -4 32 13 21 36 11 50 -21z
m202 22 c7 -7 25 -8 52 -2 45 11 70 -4 59 -33 -4 -8 -2 -17 3 -20 15 -9 12
-42 -4 -58 -16 -16 -72 -11 -83 7 -4 6 -9 27 -10 46 -1 22 -10 42 -24 53 -12
9 -17 17 -12 17 5 0 14 -5 19 -10z m1044 0 c0 -5 -2 -10 -4 -10 -3 0 -8 5 -11
10 -3 6 -1 10 4 10 6 0 11 -4 11 -10z m37 4 c-3 -3 -12 -4 -19 -1 -8 3 -5 6 6
6 11 1 17 -2 13 -5z m-1116 -15 c28 -15 42 -55 28 -82 -16 -30 -28 -37 -64
-37 -40 0 -55 16 -55 59 0 58 42 87 91 60z m-278 -17 c-2 -10 -11 -19 -19 -19
-18 0 -18 2 2 21 20 21 23 20 17 -2z m-878 -48 c-4 -51 -10 -64 -17 -37 -4 17
9 83 16 83 2 0 2 -21 1 -46z m1335 25 c0 -6 -4 -7 -10 -4 -5 3 -10 11 -10 16
0 6 5 7 10 4 6 -3 10 -11 10 -16z m130 -5 c0 -17 -22 -14 -28 4 -2 7 3 12 12
12 9 0 16 -7 16 -16z m470 6 c0 -5 -5 -10 -11 -10 -5 0 -7 5 -4 10 3 6 8 10
11 10 2 0 4 -4 4 -10z m52 -22 c-7 -7 -12 -8 -12 -2 0 6 3 14 7 17 3 4 9 5 12
2 2 -3 -1 -11 -7 -17z m-1862 -45 c-11 -17 -11 -17 -6 0 3 10 6 24 7 30 0 9 2
9 5 0 3 -7 0 -20 -6 -30z m750 -3 c0 -5 -5 -10 -11 -10 -5 0 -7 5 -4 10 3 6 8
10 11 10 2 0 4 -4 4 -10z m-846 -15 c-4 -8 -10 -12 -15 -9 -11 6 -2 24 11 24
5 0 7 -7 4 -15z m1180 -8 c-3 -8 -18 -11 -47 -7 l-42 5 38 3 c20 2 37 8 37 13
0 6 4 8 10 4 5 -3 7 -11 4 -18z m152 5 c-10 -9 -95 -19 -90 -10 3 4 16 8 30 8
14 0 23 4 20 9 -3 4 6 6 20 3 14 -2 22 -7 20 -10z m-1201 -2 c3 -6 -1 -7 -9
-4 -18 7 -21 14 -7 14 6 0 13 -4 16 -10z m1265 -10 c0 -5 -2 -10 -4 -10 -3 0
-8 5 -11 10 -3 6 -1 10 4 10 6 0 11 -4 11 -10z m810 -5 c-7 -8 -18 -15 -24
-15 -6 0 -2 7 8 15 25 19 32 19 16 0z m-55 -5 c8 -13 -5 -13 -25 0 -13 8 -13
10 2 10 9 0 20 -4 23 -10z m-1995 -4 c0 -2 -7 -9 -15 -16 -13 -11 -14 -10 -9
4 5 14 24 23 24 12z"/>
<path d="M3411 7794 c0 -11 3 -14 6 -6 3 7 2 16 -1 19 -3 4 -6 -2 -5 -13z"/>
<path d="M3942 7769 c-12 -18 -11 -24 0 -36 26 -25 65 7 52 42 -9 22 -37 18
-52 -6z"/>
<path d="M4316 7626 c-18 -29 -12 -56 13 -56 21 0 43 43 35 65 -9 22 -30 18
-48 -9z"/>
<path d="M2877 7663 c-23 -22 16 -79 47 -67 22 9 20 23 -3 17 -14 -3 -20 2
-23 21 -3 14 -2 23 3 21 4 -3 10 -1 14 5 7 11 -28 14 -38 3z"/>
<path d="M3576 7477 c-4 -21 -11 -35 -16 -32 -5 3 -7 -25 -4 -67 7 -85 -7
-143 -69 -288 -39 -90 -41 -102 -48 -230 -8 -166 -19 -207 -75 -286 -64 -90
-84 -139 -84 -212 0 -84 36 -162 91 -199 46 -31 47 -53 3 -65 -54 -14 -59 -27
-60 -182 -1 -101 3 -149 12 -168 8 -15 14 -43 14 -62 0 -28 8 -42 51 -80 28
-25 67 -50 87 -56 23 -6 48 -23 65 -45 34 -43 49 -44 79 -4 22 27 27 29 50 18
20 -9 36 -36 70 -115 23 -57 45 -104 48 -104 11 0 32 72 23 79 -18 12 -55 141
-40 141 4 0 22 -20 40 -45 26 -34 36 -41 41 -29 7 17 -24 83 -48 103 -11 9
-33 12 -65 9 -56 -6 -81 4 -81 33 0 31 27 34 81 9 27 -13 52 -20 56 -15 5 4 2
10 -5 12 -30 11 -97 71 -116 103 -25 42 -29 135 -6 151 11 8 12 12 3 15 -32
13 -63 48 -63 69 l0 24 -42 -19 c-66 -30 -148 -21 -148 16 0 16 1 16 18 1 10
-10 28 -17 40 -17 18 0 22 6 22 34 0 33 1 34 50 41 42 6 57 3 93 -17 23 -14
58 -31 77 -38 19 -7 49 -24 67 -37 38 -28 43 -28 43 -5 0 22 -22 43 -63 60
-15 7 -25 17 -22 22 12 20 82 -36 109 -87 32 -63 67 -169 69 -211 1 -38 4 -43
21 -38 31 8 87 -72 57 -82 -13 -4 -5 -22 10 -22 6 0 8 4 5 9 -9 14 20 32 40
24 14 -5 13 0 -8 28 -14 19 -40 63 -58 99 -17 36 -38 72 -45 80 -7 8 -29 47
-49 85 -43 83 -90 143 -121 155 -20 7 -23 16 -22 59 1 33 5 51 13 51 23 0 75
53 100 102 39 77 31 204 -22 344 -66 174 -66 176 -69 294 -1 63 -6 128 -10
144 -8 28 -9 29 -16 8 -15 -39 -26 -23 -32 46 -7 75 -29 147 -82 272 -20 46
-40 100 -44 120 l-7 35 -8 -38z m44 -273 c13 -40 7 -132 -15 -214 -10 -37 -14
-90 -11 -160 3 -104 15 -149 60 -230 26 -47 45 -143 43 -217 l-3 -73 18 37
c31 64 32 134 5 293 -26 150 -26 180 4 281 12 37 28 53 30 27 8 -161 11 -181
44 -258 51 -118 63 -175 54 -245 -14 -118 -39 -131 -39 -21 0 41 -3 77 -7 79
-5 3 -8 -27 -7 -66 0 -40 -4 -87 -10 -106 -14 -45 -76 -111 -104 -111 -22 0
-29 17 -14 36 4 5 -6 -3 -21 -18 -15 -16 -35 -28 -44 -28 -9 0 -13 -6 -9 -15
9 -25 -39 -18 -74 11 -17 15 -37 39 -46 55 -10 20 -22 29 -39 29 -33 0 -65 51
-65 103 0 44 11 47 38 10 l19 -27 -6 40 c-4 23 -2 64 7 99 31 137 36 163 42
235 3 41 9 68 12 60 34 -84 54 -174 48 -208 -5 -20 -16 -73 -25 -117 l-17 -81
32 -82 c33 -83 44 -96 54 -64 16 56 16 94 -2 168 -13 51 -22 132 -26 229 -4
83 -11 210 -17 283 -11 131 -11 133 16 220 15 48 30 91 32 95 8 14 31 -13 43
-49z m54 -48 c7 -29 9 -191 2 -226 -8 -39 -26 -154 -26 -164 0 -6 -5 -5 -11 1
-8 8 -8 37 1 104 7 52 13 142 13 202 0 103 8 134 21 83z m-264 -1096 c13 -8
12 -10 -3 -10 -15 0 -16 -3 -7 -20 7 -14 8 -26 0 -39 -25 -48 2 -89 68 -101
l37 -8 -42 -1 c-39 -1 -44 2 -73 45 -46 65 -54 100 -29 125 22 22 28 23 49 9z
m56 -87 c-10 -10 -19 5 -10 18 6 11 8 11 12 0 2 -7 1 -15 -2 -18z m22 -135
c53 5 55 4 39 -12 -9 -10 -17 -28 -17 -42 0 -63 -110 -3 -154 83 -30 60 -18
66 30 15 l46 -49 56 5z m-5 -106 c50 -4 54 -6 49 -28 -9 -48 -103 -26 -156 36
-14 18 -26 41 -26 53 0 19 5 16 40 -18 33 -33 47 -39 93 -43z m97 57 c0 -23
-30 -23 -38 0 -3 10 0 12 12 8 9 -4 16 -2 16 3 0 6 2 10 5 10 3 0 5 -9 5 -21z
m0 -100 c0 -5 -4 -9 -10 -9 -5 0 -10 7 -10 16 0 8 5 12 10 9 6 -3 10 -10 10
-16z m-165 -25 c13 -9 49 -16 82 -17 l58 -2 -3 -32 c-4 -30 -7 -33 -40 -33
-41 0 -132 62 -132 91 0 13 7 11 35 -7z"/>
<path d="M3776 6560 c7 -28 12 -35 18 -29 2 2 -2 15 -10 29 l-15 25 7 -25z"/>
<path d="M3217 7433 c-4 -3 -7 -13 -7 -22 1 -13 3 -13 11 2 11 19 8 33 -4 20z"/>
<path d="M3188 7373 c-28 -33 -31 -48 -3 -20 15 16 25 30 23 33 -3 2 -12 -4
-20 -13z"/>
<path d="M4242 7370 c7 -11 17 -20 22 -20 5 0 1 9 -9 20 -10 11 -20 20 -22 20
-2 0 2 -9 9 -20z"/>
<path d="M3060 7360 c-13 -11 -19 -20 -13 -20 5 0 18 9 28 20 10 11 16 20 13
20 -3 0 -15 -9 -28 -20z"/>
<path d="M4120 7376 c0 -2 8 -10 18 -17 15 -13 16 -12 3 4 -13 16 -21 21 -21
13z"/>
<path d="M2930 7345 c-8 -9 -8 -15 -2 -15 12 0 26 19 19 26 -2 2 -10 -2 -17
-11z"/>
<path d="M3293 7353 c9 -2 25 -2 35 0 9 3 1 5 -18 5 -19 0 -27 -2 -17 -5z"/>
<path d="M3913 7353 c9 -2 23 -2 30 0 6 3 -1 5 -18 5 -16 0 -22 -2 -12 -5z"/>
<path d="M3997 7347 c-3 -8 1 -14 8 -14 7 0 11 6 8 14 -3 7 -6 13 -8 13 -2 0
-5 -6 -8 -13z"/>
<path d="M3238 7343 c7 -3 16 -2 19 1 4 3 -2 6 -13 5 -11 0 -14 -3 -6 -6z"/>
<path d="M3900 7335 c0 -5 5 -17 10 -25 5 -8 10 -10 10 -5 0 6 -5 17 -10 25
-5 8 -10 11 -10 5z"/>
<path d="M4040 7323 c8 -3 27 -12 43 -20 15 -7 27 -11 27 -9 0 8 -58 36 -72
35 -9 0 -8 -2 2 -6z"/>
<path d="M3928 7275 c5 -11 24 -32 40 -47 24 -21 31 -24 36 -12 3 8 2 13 -3
10 -4 -3 -25 11 -46 32 -21 20 -33 28 -27 17z"/>
<path d="M4130 7267 c0 -2 6 -10 14 -16 11 -9 16 -9 22 1 4 7 4 10 -1 6 -4 -4
-14 -3 -22 3 -7 6 -13 9 -13 6z"/>
<path d="M2865 7249 c-4 -6 -5 -12 -2 -15 2 -3 7 2 10 11 7 17 1 20 -8 4z"/>
<path d="M3220 7241 c0 -6 4 -13 10 -16 6 -3 7 1 4 9 -7 18 -14 21 -14 7z"/>
<path d="M4088 7193 c6 -2 18 -2 25 0 6 3 1 5 -13 5 -14 0 -19 -2 -12 -5z"/>
<path d="M3088 7183 c7 -3 16 -2 19 1 4 3 -2 6 -13 5 -11 0 -14 -3 -6 -6z"/>
<path d="M3160 7180 c0 -5 7 -7 15 -4 8 4 15 8 15 10 0 2 -7 4 -15 4 -8 0 -15
-4 -15 -10z"/>
<path d="M4150 7150 c-8 -5 -10 -10 -5 -10 6 0 17 5 25 10 8 5 11 10 5 10 -5
0 -17 -5 -25 -10z"/>
<path d="M4218 7143 c7 -3 16 -2 19 1 4 3 -2 6 -13 5 -11 0 -14 -3 -6 -6z"/>
<path d="M2928 7133 c7 -3 16 -2 19 1 4 3 -2 6 -13 5 -11 0 -14 -3 -6 -6z"/>
<path d="M2973 7133 c9 -2 23 -2 30 0 6 3 -1 5 -18 5 -16 0 -22 -2 -12 -5z"/>
<path d="M2697 7111 c-4 -17 -3 -21 5 -13 5 5 8 16 6 23 -3 8 -7 3 -11 -10z"/>
<path d="M2745 7120 c-13 -6 -15 -9 -5 -9 8 0 22 4 30 9 18 12 2 12 -25 0z"/>
<path d="M2901 7114 c0 -11 3 -14 6 -6 3 7 2 16 -1 19 -3 4 -6 -2 -5 -13z"/>
<path d="M4485 7110 c-3 -5 -1 -10 4 -10 6 0 11 5 11 10 0 6 -2 10 -4 10 -3 0
-8 -4 -11 -10z"/>
<path d="M2886 7059 c-3 -17 -10 -28 -16 -24 -5 3 -10 2 -10 -4 0 -5 5 -13 10
-16 6 -3 10 -4 10 -2 0 3 7 21 15 41 8 20 11 36 6 36 -5 0 -11 -14 -15 -31z"/>
<path d="M4321 7064 c0 -11 3 -14 6 -6 3 7 2 16 -1 19 -3 4 -6 -2 -5 -13z"/>
<path d="M2630 7031 c0 -6 4 -13 10 -16 6 -3 7 1 4 9 -7 18 -14 21 -14 7z"/>
<path d="M4575 7030 c3 -5 8 -10 11 -10 2 0 4 5 4 10 0 6 -5 10 -11 10 -5 0
-7 -4 -4 -10z"/>
<path d="M4370 6996 c0 -2 7 -7 16 -10 8 -3 12 -2 9 4 -6 10 -25 14 -25 6z"/>
<path d="M4318 6983 c7 -3 16 -2 19 1 4 3 -2 6 -13 5 -11 0 -14 -3 -6 -6z"/>
<path d="M2550 6950 c-6 -11 -8 -20 -6 -20 3 0 10 9 16 20 6 11 8 20 6 20 -3
0 -10 -9 -16 -20z"/>
<path d="M4410 6950 c0 -5 5 -10 11 -10 5 0 7 5 4 10 -3 6 -8 10 -11 10 -2 0
-4 -4 -4 -10z"/>
<path d="M4660 6900 c6 -11 13 -20 16 -20 2 0 0 9 -6 20 -6 11 -13 20 -16 20
-2 0 0 -9 6 -20z"/>
<path d="M4527 6819 c7 -7 15 -10 18 -7 3 3 -2 9 -12 12 -14 6 -15 5 -6 -5z"/>
<path d="M4646 6795 c4 -11 10 -36 14 -55 8 -34 8 -34 8 -5 1 17 -6 41 -14 55
-10 16 -13 18 -8 5z"/>
<path d="M4556 6785 c-9 -26 -7 -32 5 -12 6 10 9 21 6 23 -2 3 -7 -2 -11 -11z"/>
<path d="M2543 6755 c0 -22 2 -30 4 -17 2 12 2 30 0 40 -3 9 -5 -1 -4 -23z"/>
<path d="M2612 6733 c-5 -10 -6 -29 -2 -43 6 -21 7 -19 11 18 5 47 4 50 -9 25z"/>
<path d="M2453 6705 c0 -22 2 -30 4 -17 2 12 2 30 0 40 -3 9 -5 -1 -4 -23z"/>
<path d="M4582 6710 c0 -14 2 -19 5 -12 2 6 2 18 0 25 -3 6 -5 1 -5 -13z"/>
<path d="M2720 6701 c0 -6 4 -13 10 -16 6 -3 7 1 4 9 -7 18 -14 21 -14 7z"/>
<path d="M4450 6650 c6 -11 13 -20 16 -20 2 0 0 9 -6 20 -6 11 -13 20 -16 20
-2 0 0 -9 6 -20z"/>
<path d="M4651 6624 c0 -11 3 -14 6 -6 3 7 2 16 -1 19 -3 4 -6 -2 -5 -13z"/>
<path d="M2451 6574 c0 -11 3 -14 6 -6 3 7 2 16 -1 19 -3 4 -6 -2 -5 -13z"/>
<path d="M4736 6514 c-4 -9 -4 -19 -1 -22 2 -3 7 3 11 12 4 9 4 19 1 22 -2 3
-7 -3 -11 -12z"/>
<path d="M4616 6463 c-6 -14 -5 -15 5 -6 7 7 10 15 7 18 -3 3 -9 -2 -12 -12z"/>
<path d="M2616 6417 c3 -10 9 -15 12 -12 3 3 0 11 -7 18 -10 9 -11 8 -5 -6z"/>
<path d="M4740 6420 c0 -5 5 -10 11 -10 5 0 7 5 4 10 -3 6 -8 10 -11 10 -2 0
-4 -4 -4 -10z"/>
<path d="M2456 6395 c-9 -26 -7 -32 5 -12 6 10 9 21 6 23 -2 3 -7 -2 -11 -11z"/>
<path d="M2651 6387 c-13 -21 -12 -21 5 -5 10 10 16 20 13 22 -3 3 -11 -5 -18
-17z"/>
<path d="M4550 6381 c0 -5 7 -15 17 -22 15 -13 15 -12 4 9 -12 23 -21 28 -21
13z"/>
<path d="M4790 6380 c-9 -6 -10 -10 -3 -10 6 0 15 5 18 10 8 12 4 12 -15 0z"/>
<path d="M2611 6354 c0 -11 3 -14 6 -6 3 7 2 16 -1 19 -3 4 -6 -2 -5 -13z"/>
<path d="M4691 6294 c0 -11 3 -14 6 -6 3 7 2 16 -1 19 -3 4 -6 -2 -5 -13z"/>
<path d="M2465 6289 c-4 -6 -5 -12 -2 -15 2 -3 7 2 10 11 7 17 1 20 -8 4z"/>
<path d="M2630 6221 c0 -6 4 -13 10 -16 6 -3 7 1 4 9 -7 18 -14 21 -14 7z"/>
<path d="M4535 6150 c-10 -11 -16 -22 -13 -25 3 -3 13 6 22 20 20 30 16 32 -9
5z"/>
<path d="M2720 6124 c0 -13 18 -39 24 -34 2 3 -2 14 -10 24 -8 11 -14 16 -14
10z"/>
<path d="M4622 6110 c0 -14 2 -19 5 -12 2 6 2 18 0 25 -3 6 -5 1 -5 -13z"/>
<path d="M2531 6117 c2 -1 13 -9 24 -17 19 -14 19 -14 6 3 -7 9 -18 17 -24 17
-6 0 -8 -1 -6 -3z"/>
<path d="M4669 6103 c-13 -16 -12 -17 4 -4 9 7 17 15 17 17 0 8 -8 3 -21 -13z"/>
<path d="M4772 6090 c0 -14 2 -19 5 -12 2 6 2 18 0 25 -3 6 -5 1 -5 -13z"/>
<path d="M2462 6060 c0 -14 2 -19 5 -12 2 6 2 18 0 25 -3 6 -5 1 -5 -13z"/>
<path d="M4480 6056 c0 -2 7 -9 15 -16 9 -7 15 -8 15 -2 0 5 -7 12 -15 16 -8
3 -15 4 -15 2z"/>
<path d="M2615 6040 c3 -5 8 -10 11 -10 2 0 4 5 4 10 0 6 -5 10 -11 10 -5 0
-7 -4 -4 -10z"/>
<path d="M2540 6005 c0 -5 5 -17 10 -25 5 -8 10 -10 10 -5 0 6 -5 17 -10 25
-5 8 -10 11 -10 5z"/>
<path d="M2631 5994 c0 -11 3 -14 6 -6 3 7 2 16 -1 19 -3 4 -6 -2 -5 -13z"/>
<path d="M4667 5968 c-10 -11 -16 -22 -13 -26 6 -6 35 27 36 41 0 10 -2 8 -23
-15z"/>
<path d="M4490 5919 c0 -5 5 -7 10 -4 6 3 10 8 10 11 0 2 -4 4 -10 4 -5 0 -10
-5 -10 -11z"/>
<path d="M2635 5889 c-4 -6 -14 -8 -23 -4 -13 5 -12 2 3 -15 19 -21 30 -27 20
-10 -4 6 -1 17 5 25 7 8 10 15 7 15 -3 0 -9 -5 -12 -11z"/>
<path d="M2525 5857 c10 -15 20 -25 23 -22 3 3 -5 16 -17 28 l-23 22 17 -28z"/>
<path d="M4653 5805 c0 -8 4 -12 9 -9 5 3 6 10 3 15 -9 13 -12 11 -12 -6z"/>
<path d="M2610 5790 c0 -5 5 -10 11 -10 5 0 7 5 4 10 -3 6 -8 10 -11 10 -2 0
-4 -4 -4 -10z"/>
<path d="M2651 5726 c2 -2 15 -9 29 -15 24 -11 24 -11 6 3 -16 13 -49 24 -35
12z"/>
<path d="M4302 5667 c-8 -10 -6 -13 11 -14 12 0 16 1 9 4 -6 3 -10 9 -6 14 8
14 -2 11 -14 -4z"/>
<path d="M4502 5610 c0 -14 2 -19 5 -12 2 6 2 18 0 25 -3 6 -5 1 -5 -13z"/>
<path d="M3000 5606 c0 -2 7 -7 16 -10 8 -3 12 -2 9 4 -6 10 -25 14 -25 6z"/>
<path d="M4086 5601 c-4 -5 3 -7 14 -4 23 6 26 13 6 13 -8 0 -17 -4 -20 -9z"/>
<path d="M2774 5560 c1 -17 4 -30 9 -30 10 0 9 48 -2 54 -4 3 -8 -8 -7 -24z"/>
<path d="M2981 5574 c0 -11 3 -14 6 -6 3 7 2 16 -1 19 -3 4 -6 -2 -5 -13z"/>
<path d="M3035 5580 c-3 -6 1 -7 9 -4 18 7 21 14 7 14 -6 0 -13 -4 -16 -10z"/>
<path d="M3078 5573 c7 -3 16 -2 19 1 4 3 -2 6 -13 5 -11 0 -14 -3 -6 -6z"/>
<path d="M3175 5570 c-4 -6 1 -7 11 -3 13 5 15 3 9 -7 -5 -9 -4 -11 4 -6 6 4
9 12 6 17 -8 12 -22 12 -30 -1z"/>
<path d="M4186 5543 c-6 -14 -5 -15 5 -6 7 7 10 15 7 18 -3 3 -9 -2 -12 -12z"/>
<path d="M2937 5529 c7 -7 15 -10 18 -7 3 3 -2 9 -12 12 -14 6 -15 5 -6 -5z"/>
<path d="M3876 5531 c-7 -11 3 -41 13 -41 10 0 31 23 31 34 0 5 -3 6 -7 3 -3
-4 -12 -2 -19 4 -8 6 -14 6 -18 0z"/>
<path d="M2810 5506 c0 -2 7 -9 15 -16 13 -11 14 -10 9 4 -5 14 -24 23 -24 12z"/>
<path d="M4150 5483 c8 -13 20 -19 29 -15 13 5 13 6 0 10 -7 3 -20 10 -28 16
-12 9 -12 8 -1 -11z"/>
<path d="M4106 5461 c-3 -4 6 -6 19 -3 14 2 25 6 25 8 0 8 -39 4 -44 -5z"/>
<path d="M3148 5433 c7 -3 16 -2 19 1 4 3 -2 6 -13 5 -11 0 -14 -3 -6 -6z"/>
<path d="M4050 5430 c-18 -12 -2 -12 25 0 13 6 15 9 5 9 -8 0 -22 -4 -30 -9z"/>
<path d="M3188 5423 c6 -2 9 -10 6 -15 -4 -7 -2 -8 5 -4 13 9 5 26 -12 25 -9
0 -8 -2 1 -6z"/>
<path d="M4295 5410 c-3 -6 1 -7 9 -4 18 7 21 14 7 14 -6 0 -13 -4 -16 -10z"/>
<path d="M4255 5370 c-10 -11 -16 -22 -14 -24 2 -2 12 7 22 20 22 29 17 32 -8
4z"/>
<path d="M4100 5360 l-25 -8 28 -1 c15 -1 27 4 27 9 0 6 -1 10 -2 9 -2 -1 -14
-5 -28 -9z"/>
<path d="M3108 5353 c7 -3 16 -2 19 1 4 3 -2 6 -13 5 -11 0 -14 -3 -6 -6z"/>
<path d="M3446 5343 c-6 -14 -5 -15 5 -6 7 7 10 15 7 18 -3 3 -9 -2 -12 -12z"/>
<path d="M3687 5343 c4 -11 3 -14 -5 -9 -7 4 -12 3 -12 -3 0 -5 5 -13 10 -16
6 -3 10 -1 10 5 0 7 7 9 17 6 15 -6 15 -4 -2 14 -22 24 -26 25 -18 3z"/>
<path d="M4205 5330 c-3 -6 1 -7 9 -4 18 7 21 14 7 14 -6 0 -13 -4 -16 -10z"/>
<path d="M3250 5310 c20 -13 33 -13 25 0 -3 6 -14 10 -23 10 -15 0 -15 -2 -2
-10z"/>
<path d="M3060 5300 c0 -5 5 -10 11 -10 5 0 7 5 4 10 -3 6 -8 10 -11 10 -2 0
-4 -4 -4 -10z"/>
<path d="M4132 5278 c-18 -11 -31 -22 -28 -25 7 -7 66 26 66 37 0 12 2 13 -38
-12z"/>
<path d="M3520 5271 c0 -10 19 -25 25 -20 1 2 -3 10 -11 17 -8 7 -14 8 -14 3z"/>
<path d="M3771 5244 c0 -11 3 -14 6 -6 3 7 2 16 -1 19 -3 4 -6 -2 -5 -13z"/>
<path d="M3988 5223 c7 -3 16 -2 19 1 4 3 -2 6 -13 5 -11 0 -14 -3 -6 -6z"/>
<path d="M4663 7367 c-25 -11 -30 -39 -10 -55 8 -7 18 -5 35 8 40 33 21 68
-25 47z"/>
<path d="M2353 7183 c-8 -20 31 -55 52 -46 18 6 19 35 3 51 -17 17 -48 15 -55
-5z m54 -25 c-3 -8 -6 -5 -6 6 -1 11 2 17 5 13 3 -3 4 -12 1 -19z"/>
<path d="M4931 7044 c0 -11 3 -14 6 -6 3 7 2 16 -1 19 -3 4 -6 -2 -5 -13z"/>
<path d="M4861 7026 c-9 -10 -9 -16 -1 -21 6 -4 14 -4 17 -1 4 3 0 6 -8 6 -12
0 -12 2 1 10 8 5 12 12 9 15 -4 3 -12 -1 -18 -9z"/>
<path d="M2210 6739 c-11 -19 -10 -20 9 -9 12 6 21 15 21 20 0 18 -19 11 -30
-11z"/>
<path d="M2132 6591 c-8 -5 -12 -17 -10 -27 4 -24 50 -31 67 -10 10 11 8 17
-11 30 -26 18 -28 19 -46 7z"/>
<path d="M5076 6533 c-11 -11 -6 -23 9 -23 8 0 15 4 15 9 0 13 -16 22 -24 14z"/>
<path d="M2170 6080 c0 -5 5 -10 10 -10 6 0 10 5 10 10 0 6 -4 10 -10 10 -5 0
-10 -4 -10 -10z"/>
<path d="M4850 5709 c0 -15 5 -19 16 -15 8 3 13 2 10 -3 -7 -11 22 -23 35 -15
16 10 9 26 -8 20 -10 -4 -14 -4 -10 0 7 7 -21 33 -35 34 -5 0 -8 -9 -8 -21z"/>
<path d="M2350 5570 c0 -5 5 -10 11 -10 5 0 7 5 4 10 -3 6 -8 10 -11 10 -2 0
-4 -4 -4 -10z"/>
<path d="M2495 5440 c-3 -5 -2 -10 4 -10 5 0 13 5 16 10 3 6 2 10 -4 10 -5 0
-13 -4 -16 -10z"/>
<path d="M4800 5525 c-8 -9 -8 -15 -2 -15 12 0 26 19 19 26 -2 2 -10 -2 -17
-11z"/>
<path d="M4400 4980 c0 -5 5 -10 11 -10 5 0 7 5 4 10 -3 6 -8 10 -11 10 -2 0
-4 -4 -4 -10z"/>
<path d="M3602 4848 c-18 -18 -14 -38 8 -38 13 0 20 7 20 19 0 25 -13 34 -28
19z"/>
<path d="M8394 5945 c-19 -19 -25 -33 -21 -52 3 -19 0 -27 -14 -30 -22 -6 -26
-43 -4 -43 12 0 15 -18 15 -105 l0 -105 30 0 30 0 0 105 0 105 25 0 c20 0 25
5 25 26 0 20 -4 25 -22 22 -18 -2 -24 2 -26 24 -3 23 1 27 25 30 20 2 28 9 28
23 0 33 -58 33 -91 0z"/>
<path d="M5382 5788 l3 -173 82 0 c94 1 124 13 156 64 32 52 32 171 0 222 -30
48 -59 59 -159 59 l-84 0 2 -172z m191 91 c16 -20 18 -36 15 -100 -4 -98 -13
-109 -89 -109 l-59 0 0 119 c0 83 4 121 12 123 29 10 102 -10 121 -33z"/>
<path d="M8640 5935 c0 -24 2 -25 75 -25 41 0 75 -3 75 -6 0 -6 -101 -142
-147 -197 -14 -18 -23 -42 -23 -63 l0 -34 130 0 130 0 0 30 0 30 -96 0 -95 0
28 38 c15 20 58 76 95 124 38 48 68 97 68 108 0 19 -6 20 -120 20 l-120 0 0
-25z"/>
<path d="M9500 5785 l0 -175 25 0 25 0 0 175 0 175 -25 0 -25 0 0 -175z"/>
<path d="M6717 5932 c-20 -12 -27 -23 -24 -39 2 -14 -2 -23 -12 -26 -21 -5
-25 -47 -5 -47 11 0 14 -17 14 -83 0 -112 27 -147 94 -121 27 10 20 44 -9 44
-25 0 -25 1 -25 80 0 79 0 80 25 80 20 0 25 5 25 25 0 21 -5 25 -28 25 -26 0
-27 2 -24 40 2 22 3 40 1 40 -2 0 -17 -8 -32 -18z"/>
<path d="M7818 5926 c-10 -7 -18 -22 -18 -34 0 -11 -7 -22 -15 -26 -8 -3 -15
-15 -15 -26 0 -11 7 -20 15 -20 12 0 15 -16 15 -85 0 -72 3 -88 20 -105 31
-31 90 -24 90 11 0 14 -7 19 -25 19 -25 0 -25 1 -25 79 0 75 1 80 23 83 14 2
22 10 22 23 0 14 -6 20 -22 19 -20 0 -23 4 -23 38 0 40 -12 47 -42 24z"/>
<path d="M5742 5854 c-32 -22 -52 -67 -52 -114 0 -77 45 -130 111 -130 38 0
89 31 89 55 0 22 -40 25 -61 4 -10 -10 -22 -19 -27 -19 -19 0 -52 33 -52 53 0
21 4 22 71 19 39 -2 75 0 80 5 4 4 4 26 -1 48 -17 78 -101 119 -158 79z m88
-44 c35 -35 26 -50 -30 -50 -55 0 -65 16 -33 52 21 23 38 23 63 -2z"/>
<path d="M5970 5691 l0 -181 25 0 c24 0 25 2 25 65 0 69 3 73 34 50 62 -47
136 18 136 120 0 60 -21 100 -61 114 -44 15 -52 14 -78 -10 -22 -21 -36 -19
-36 4 0 7 -10 13 -22 15 l-23 3 0 -180z m143 121 c37 -41 28 -144 -14 -157
-73 -23 -108 136 -37 165 32 12 33 12 51 -8z"/>
<path d="M6285 5858 c-21 -12 -44 -38 -45 -50 0 -13 44 -8 64 7 25 19 41 19
60 0 24 -24 9 -42 -44 -55 -26 -6 -57 -20 -69 -31 -30 -28 -27 -72 5 -98 32
-25 55 -26 95 -6 26 14 30 14 35 0 3 -8 16 -15 28 -15 20 0 21 4 18 83 -4 116
-10 144 -35 162 -25 18 -83 19 -112 3z m85 -156 c0 -34 -16 -52 -47 -52 -40 0
-53 63 -14 73 46 13 61 8 61 -21z"/>
<path d="M6517 5863 c-4 -3 -7 -62 -7 -130 0 -122 0 -123 24 -123 22 0 23 4
29 92 6 97 20 125 58 113 17 -6 30 19 22 43 -6 17 -38 15 -53 -3 -7 -8 -16
-15 -21 -15 -5 0 -9 7 -9 15 0 15 -31 21 -43 8z"/>
<path d="M6844 5857 c-2 -7 -3 -65 -2 -128 l3 -114 28 -3 27 -3 0 95 c0 87 2
96 22 110 28 20 33 20 52 0 12 -12 16 -37 16 -110 0 -94 0 -94 25 -94 24 0 25
3 25 63 0 99 10 137 36 149 43 20 54 -2 54 -113 l0 -99 31 0 31 0 -4 111 c-3
102 -5 112 -27 130 -30 25 -62 24 -95 -2 l-27 -21 -20 21 c-25 27 -59 27 -93
0 l-27 -21 -6 21 c-6 23 -41 29 -49 8z"/>
<path d="M7293 5850 c-37 -22 -58 -83 -49 -139 16 -98 116 -132 184 -64 l26
26 -23 8 c-16 6 -29 3 -49 -11 -35 -25 -68 -17 -81 21 -5 16 -7 29 -3 30 4 0
39 0 79 -1 39 -1 73 3 76 7 13 20 -13 89 -43 116 -36 32 -73 35 -117 7z m85
-36 c12 -8 22 -24 22 -35 0 -16 -7 -19 -49 -19 -28 0 -52 4 -55 9 -7 11 32 61
48 61 6 0 22 -7 34 -16z"/>
<path d="M7520 5741 l0 -131 25 0 c25 0 25 2 25 78 0 96 6 116 35 132 17 9 28
9 44 1 19 -11 21 -20 21 -112 l0 -100 28 3 27 3 0 108 c0 104 -1 110 -25 129
-29 23 -87 19 -107 -9 -13 -17 -28 -11 -28 10 0 7 -10 13 -22 15 -23 3 -23 3
-23 -127z"/>
<path d="M8119 5847 c-48 -32 -67 -89 -50 -148 21 -75 94 -107 166 -73 82 38
88 176 10 224 -42 26 -84 25 -126 -3z m103 -44 c20 -18 25 -91 8 -124 -13 -24
-66 -26 -92 -2 -28 25 -25 107 4 127 29 21 57 20 80 -1z"/>
<path d="M8970 5848 c-21 -14 -39 -39 -49 -66 -13 -37 -14 -47 -1 -84 17 -47
67 -88 107 -88 14 0 40 7 59 16 87 42 86 187 -2 229 -44 21 -75 19 -114 -7z
m104 -44 c18 -18 22 -95 6 -125 -13 -24 -66 -26 -92 -2 -24 21 -25 99 -1 125
20 22 66 24 87 2z"/>
<path d="M9270 5857 c-35 -18 -70 -74 -70 -114 0 -66 43 -119 105 -129 80 -11
135 40 135 127 0 95 -90 157 -170 116z m92 -54 c24 -21 25 -99 1 -125 -23 -25
-68 -23 -87 4 -21 30 -20 96 1 120 20 22 61 23 85 1z"/>
<path d="M9669 5847 c-95 -64 -63 -219 48 -234 35 -5 50 -1 78 18 45 31 59 67
52 130 -4 36 -13 57 -29 71 -50 44 -99 49 -149 15z m105 -43 c18 -18 22 -95 6
-125 -15 -28 -74 -26 -94 3 -37 52 -9 138 44 138 16 0 36 -7 44 -16z"/>
<path d="M9937 5850 c-72 -57 -52 -208 31 -234 15 -5 34 -1 57 13 l35 20 0
-40 c0 -33 -4 -41 -26 -51 -20 -10 -31 -9 -57 4 -74 38 -100 28 -59 -22 14
-18 32 -24 73 -27 110 -8 131 31 127 226 -3 120 -4 126 -24 129 -15 2 -23 -4
-27 -20 l-6 -22 -24 22 c-29 27 -66 28 -100 2z m103 -40 c26 -26 28 -105 3
-132 -22 -24 -69 -24 -83 1 -14 27 -13 104 3 123 11 14 31 25 50 27 4 1 16 -8
27 -19z"/>
<path d="M10170 5866 c0 -2 20 -60 45 -130 49 -139 49 -170 0 -182 -35 -9 -29
-38 8 -42 47 -6 74 37 128 198 26 80 48 149 49 153 0 5 -12 7 -27 5 -26 -3
-30 -10 -53 -90 -14 -48 -28 -90 -32 -93 -3 -4 -13 20 -22 52 -32 112 -39 126
-68 129 -16 1 -28 1 -28 0z"/>
<path d="M8152 5523 c-42 -8 -89 -67 -102 -128 -26 -123 42 -225 149 -225 33
0 49 7 81 36 44 40 51 69 19 79 -20 7 -27 1 -61 -49 -4 -6 -25 -11 -47 -11
-50 0 -76 28 -85 89 -8 54 7 126 30 143 31 23 92 16 119 -13 17 -18 30 -24 44
-19 12 3 21 11 21 16 0 23 -34 59 -71 73 -39 16 -53 17 -97 9z"/>
<path d="M5370 5345 l0 -175 30 0 30 0 0 143 c1 158 7 162 40 21 35 -151 40
-164 66 -164 25 0 36 29 70 180 27 122 33 115 34 -37 l0 -143 30 0 30 0 0 175
0 175 -50 0 c-56 0 -49 12 -86 -150 -10 -41 -20 -79 -24 -83 -5 -6 -18 30 -45
123 0 3 -5 21 -9 40 -16 72 -14 70 -67 70 l-49 0 0 -175z"/>
<path d="M6330 5345 l0 -175 30 0 30 0 0 175 0 175 -30 0 -30 0 0 -175z"/>
<path d="M7260 5495 c0 -20 5 -25 25 -25 20 0 25 5 25 25 0 20 -5 25 -25 25
-20 0 -25 -5 -25 -25z"/>
<path d="M8680 5345 l0 -175 25 0 25 0 0 175 0 175 -25 0 -25 0 0 -175z"/>
<path d="M8810 5345 l0 -175 25 0 25 0 0 175 0 175 -25 0 -25 0 0 -175z"/>
<path d="M5793 5420 c-19 -8 -43 -38 -43 -54 0 -12 42 -5 56 9 20 20 48 19 69
-1 24 -24 15 -35 -49 -54 -85 -27 -108 -70 -65 -124 23 -30 56 -33 100 -11 26
14 30 14 35 0 3 -8 17 -15 31 -15 19 0 24 4 19 16 -3 9 -6 56 -6 105 0 82 -2
92 -25 114 -25 26 -78 33 -122 15z m87 -153 c0 -40 -15 -57 -51 -57 -49 0 -45
65 5 79 46 14 46 14 46 -22z"/>
<path d="M6020 5300 c0 -130 0 -130 24 -130 22 0 23 4 29 92 6 97 20 125 58
113 11 -4 18 1 22 16 3 13 4 26 1 31 -10 15 -47 8 -64 -12 l-18 -20 -5 20 c-3
12 -13 20 -26 20 -20 0 -21 -5 -21 -130z"/>
<path d="M6438 5423 c-3 -4 16 -63 41 -131 42 -113 48 -122 70 -120 20 3 29
19 67 118 23 63 43 121 43 128 1 6 -10 12 -23 12 -23 0 -29 -12 -83 -170 -3
-8 -19 26 -37 75 -25 72 -35 91 -53 93 -11 2 -23 0 -25 -5z"/>
<path d="M6753 5420 c-19 -8 -43 -38 -43 -54 0 -12 42 -5 56 9 20 20 48 19 69
-1 24 -25 15 -35 -50 -55 -86 -26 -108 -68 -64 -123 23 -30 56 -33 100 -11 26
14 30 14 35 0 3 -8 17 -15 31 -15 19 0 24 4 19 16 -3 9 -6 56 -6 105 0 82 -2
92 -25 114 -25 26 -78 33 -122 15z m87 -153 c0 -40 -15 -57 -51 -57 -49 0 -45
65 5 79 46 14 46 14 46 -22z"/>
<path d="M6980 5300 l0 -130 25 0 c24 0 25 2 26 78 1 101 9 125 43 137 44 15
56 -11 56 -122 l0 -93 30 0 30 0 0 95 c0 104 -14 149 -50 160 -28 9 -80 -4
-87 -21 -7 -20 -20 -17 -26 6 -3 12 -14 20 -26 20 -20 0 -21 -5 -21 -130z"/>
<path d="M7260 5300 l0 -130 25 0 25 0 0 130 0 130 -25 0 -25 0 0 -130z"/>
<path d="M7444 5420 c-83 -33 -95 -168 -20 -225 51 -39 99 -34 147 14 34 34
39 44 39 85 0 26 -7 60 -15 76 -26 50 -95 73 -151 50z m90 -56 c16 -16 22 -87
10 -119 -8 -21 -45 -35 -72 -28 -40 10 -56 98 -26 141 18 26 65 30 88 6z"/>
<path d="M7693 5420 c-24 -10 -43 -39 -43 -68 0 -26 37 -57 85 -72 68 -21 77
-28 65 -50 -15 -27 -74 -27 -93 0 -9 13 -20 17 -35 13 -28 -7 -28 -18 3 -48
19 -20 34 -25 75 -25 44 0 56 5 81 29 16 16 29 39 29 50 0 35 -41 69 -100 83
-44 10 -55 17 -55 33 0 16 8 21 36 23 23 2 42 -3 52 -12 9 -9 22 -16 31 -16
25 0 29 21 8 42 -23 23 -103 34 -139 18z"/>
<path d="M8432 5410 c-55 -34 -77 -112 -47 -170 29 -56 89 -81 150 -64 34 9
75 73 75 115 0 113 -89 173 -178 119z m108 -49 c5 -11 10 -38 10 -61 0 -58
-14 -80 -52 -80 -47 0 -68 25 -68 81 0 57 18 79 65 79 24 0 38 -6 45 -19z"/>
<path d="M8973 5420 c-48 -19 -72 -98 -53 -169 21 -81 107 -107 168 -53 38 35
39 38 7 46 -17 4 -31 0 -45 -14 -24 -24 -43 -25 -64 -4 -9 8 -16 22 -16 30 0
8 0 17 0 21 0 4 35 8 78 8 l77 0 -3 35 c-9 85 -75 130 -149 100z m77 -50 c35
-35 26 -50 -30 -50 -43 0 -50 3 -50 19 0 23 25 51 46 51 8 0 23 -9 34 -20z"/>
<path d="M9224 5419 c-12 -6 -29 -26 -38 -45 -32 -69 -12 -154 45 -188 26 -15
35 -16 60 -6 16 7 29 16 29 21 0 5 5 9 10 9 14 0 12 -74 -2 -88 -16 -16 -58
-15 -77 2 -26 22 -71 29 -71 11 0 -43 82 -76 149 -59 60 15 72 52 69 214 -3
129 -4 135 -24 138 -15 2 -23 -4 -27 -20 -6 -21 -7 -21 -19 -5 -16 21 -75 31
-104 16z m96 -49 c26 -26 28 -105 3 -132 -21 -23 -62 -23 -79 0 -21 28 -18
108 6 132 11 11 27 20 35 20 8 0 24 -9 35 -20z"/>
<path d="M9523 5420 c-55 -22 -81 -127 -48 -190 33 -63 110 -81 159 -35 31 29
33 41 5 50 -15 5 -25 1 -35 -14 -26 -37 -84 -16 -84 30 0 17 8 19 81 19 l82 0
-7 33 c-18 95 -79 137 -153 107z m77 -50 c35 -35 26 -50 -30 -50 -43 0 -50 3
-50 19 0 23 25 51 46 51 8 0 23 -9 34 -20z"/>
<path d="M4873 4925 c-7 -8 -9 -16 -5 -18 10 -7 5513 -7 5535 -1 9 3 17 12 17
20 0 21 -5529 21 -5547 -1z"/>
<path d="M3235 4614 c-9 -31 -14 -58 -12 -60 2 -3 10 17 17 43 7 26 20 54 28
61 14 11 14 12 0 12 -11 0 -22 -18 -33 -56z"/>
<path d="M4033 4649 c9 -5 17 -19 17 -29 0 -11 5 -20 11 -20 6 0 8 9 3 23 -7
23 -22 37 -39 37 -5 -1 -2 -5 8 -11z"/>
<path d="M3993 4634 c-3 -8 1 -22 9 -30 13 -13 14 -11 10 16 -5 34 -10 37 -19
14z"/>
<path d="M3927 4620 c-3 -11 -2 -18 3 -15 4 3 10 -6 12 -20 4 -21 1 -25 -18
-25 -13 0 -24 -4 -24 -9 0 -4 12 -6 26 -3 16 3 30 -1 36 -9 7 -10 8 -7 3 11
-3 14 -8 40 -12 58 -6 36 -18 42 -26 12z"/>
<path d="M3794 4605 c-3 -8 -4 -20 -1 -27 3 -7 6 -3 6 10 1 31 35 26 39 -6 4
-24 22 -31 22 -8 0 35 -55 61 -66 31z"/>
<path d="M3727 4563 c7 -71 11 -75 12 -10 1 31 -3 57 -8 57 -5 0 -6 -21 -4
-47z"/>
<path d="M3471 4584 c0 -11 3 -14 6 -6 3 7 2 16 -1 19 -3 4 -6 -2 -5 -13z"/>
<path d="M3530 4566 c-13 -17 -10 -58 6 -63 7 -2 9 8 6 28 -3 20 0 34 9 40 8
5 9 9 3 9 -6 0 -17 -7 -24 -14z"/>
<path d="M3583 4535 c-1 -19 3 -38 8 -41 5 -3 9 13 9 35 0 50 -16 55 -17 6z"/>
<path d="M3462 4530 c0 -19 2 -27 5 -17 2 9 2 25 0 35 -3 9 -5 1 -5 -18z"/>
</g>
</svg>
